<svg xmlns="http://www.w3.org/2000/svg" viewBox="0 0 500 500"><g id="freepik--background-complete--inject-61"><rect y="382.4" width="500" height="0.25" style="fill:#ebebeb"></rect><rect x="416.78" y="398.49" width="33.12" height="0.25" style="fill:#ebebeb"></rect><rect x="322.53" y="401.21" width="8.69" height="0.25" style="fill:#ebebeb"></rect><rect x="396.59" y="389.21" width="19.19" height="0.25" style="fill:#ebebeb"></rect><rect x="52.46" y="390.89" width="43.19" height="0.25" style="fill:#ebebeb"></rect><rect x="104.56" y="390.89" width="6.33" height="0.25" style="fill:#ebebeb"></rect><rect x="131.47" y="395.11" width="93.68" height="0.25" style="fill:#ebebeb"></rect><path d="M237,337.8H43.91a5.71,5.71,0,0,1-5.7-5.71V60.66A5.71,5.71,0,0,1,43.91,55H237a5.71,5.71,0,0,1,5.71,5.71V332.09A5.71,5.71,0,0,1,237,337.8ZM43.91,55.2a5.46,5.46,0,0,0-5.45,5.46V332.09a5.46,5.46,0,0,0,5.45,5.46H237a5.47,5.47,0,0,0,5.46-5.46V60.66A5.47,5.47,0,0,0,237,55.2Z" style="fill:#ebebeb"></path><path d="M453.31,337.8H260.21a5.72,5.72,0,0,1-5.71-5.71V60.66A5.72,5.72,0,0,1,260.21,55h193.1A5.71,5.71,0,0,1,459,60.66V332.09A5.71,5.71,0,0,1,453.31,337.8ZM260.21,55.2a5.47,5.47,0,0,0-5.46,5.46V332.09a5.47,5.47,0,0,0,5.46,5.46h193.1a5.47,5.47,0,0,0,5.46-5.46V60.66a5.47,5.47,0,0,0-5.46-5.46Z" style="fill:#ebebeb"></path><circle cx="280.62" cy="84.74" r="23.55" transform="translate(133.68 338.38) rotate(-76.72)" style="fill:#e0e0e0"></circle><circle cx="280.62" cy="84.74" r="20.03" transform="translate(152.03 348.16) rotate(-80.78)" style="fill:#f0f0f0"></circle><polyline points="279.68 71 279.68 85 270.4 79.75" style="fill:#f0f0f0;stroke:#e0e0e0;stroke-linecap:round;stroke-linejoin:round;stroke-width:2px"></polyline><path d="M393.42,348.42s7.68-15-1.1-29.86S381,300.24,386.59,297.2s8.17,11.86,8.17,11.86,4.72-10.25.82-21-6.34-28.2-1-30.07,1,21.79,5.63,29.86c0,0,3.88-9,4.52-17.6s-.36-22.37,3.84-25.9,6.89-1.09,2.77,17.93a179,179,0,0,0-4.1,34.46s9.12-24.94,15.24-25.66,6.11,7.35.87,14.35-15.34,19.55-17,26c0,0,10-18.77,19-13s-7.84,17.08-15.35,21.18-12.72,29.77-12.72,29.77Z" style="fill:#e0e0e0"></path><path d="M399.48,354.59S392,339.45,401,324.74s11.57-18.16,6-21.28-8.32,11.75-8.32,11.75-4.58-10.31-.54-21,6.71-28.11,1.42-30.05-1.31,21.78-6,29.78c0,0-3.76-9-4.28-17.65s.65-22.37-3.5-25.95-6.88-1.18-3,17.88a179.12,179.12,0,0,1,3.63,34.52s-8.78-25.06-14.89-25.87-6.21,7.27-1.07,14.34,15.08,19.76,16.65,26.24c0,0-9.75-18.9-18.84-13.27s7.61,17.19,15.06,21.39,12.32,29.94,12.32,29.94Z" style="fill:#e6e6e6"></path><polygon points="364.97 343.8 426.79 343.8 421.78 383.47 369.97 383.47 364.97 343.8" style="fill:#f0f0f0"></polygon><rect x="406.12" y="121.32" width="31.01" height="43.87" transform="translate(564.88 -278.36) rotate(90)" style="fill:#e0e0e0"></rect><rect x="408.14" y="123.39" width="26.96" height="39.75" transform="translate(564.88 -278.36) rotate(90)" style="fill:#ebebeb"></rect><rect x="356.84" y="128.41" width="27.92" height="39.5" transform="translate(741.59 296.32) rotate(180)" style="fill:#e0e0e0"></rect><rect x="358.66" y="130.27" width="24.28" height="35.79" transform="translate(741.59 296.32) rotate(180)" style="fill:#ebebeb"></rect><rect x="307.48" y="124.58" width="24.28" height="34.35" transform="translate(177.86 461.37) rotate(-90)" style="fill:#e0e0e0"></rect><rect x="309.06" y="126.2" width="21.11" height="31.12" transform="translate(177.86 461.37) rotate(-90)" style="fill:#ebebeb"></rect><rect x="53.45" y="119.65" width="178.91" height="124.62" style="fill:#e6e6e6"></rect><rect x="59.15" y="124.58" width="170.4" height="115" style="fill:#f0f0f0"></rect><rect x="140.9" y="119.65" width="4" height="124.62" style="fill:#e6e6e6"></rect><polygon points="229.55 135.45 144.9 207.16 144.9 185.84 217.21 124.58 229.55 124.58 229.55 135.45" style="fill:#fafafa"></polygon><polygon points="229.55 155.12 144.9 226.83 144.9 218.73 229.55 147.01 229.55 155.12" style="fill:#fafafa"></polygon><polygon points="140.9 143.43 59.15 212.69 59.15 193.53 140.52 124.58 140.9 124.58 140.9 143.43" style="fill:#fafafa"></polygon><polygon points="140.52 165.57 59.15 234.51 59.15 226.41 140.52 157.47 140.52 165.57" style="fill:#fafafa"></polygon></g><g id="freepik--Shadow--inject-61"><ellipse id="freepik--path--inject-61" cx="250" cy="416.24" rx="193.89" ry="11.32" style="fill:#f5f5f5"></ellipse></g><g id="freepik--Dresser--inject-61"><ellipse cx="297.4" cy="206.53" rx="52.77" ry="61.77" style="fill:#A47979"></ellipse><ellipse cx="297.4" cy="206.53" rx="52.77" ry="61.77" style="fill:#fff;opacity:0.2"></ellipse><ellipse cx="297.4" cy="206.53" rx="46.95" ry="54.95" style="fill:#A47979"></ellipse><ellipse cx="297.4" cy="206.53" rx="46.95" ry="54.95" style="fill:#fff;opacity:0.30000000000000004"></ellipse><ellipse cx="297.4" cy="206.53" rx="43.54" ry="50.96" style="fill:#e0e0e0"></ellipse><path d="M338.12,188.46,270,246.15a50.67,50.67,0,0,1-10.76-15l70-59.32A52.93,52.93,0,0,1,338.12,188.46Z" style="fill:#ebebeb"></path><path d="M304.77,156.29,254.33,199a58.22,58.22,0,0,1,2.14-9.92l39.6-33.55A39.92,39.92,0,0,1,304.77,156.29Z" style="fill:#ebebeb"></path><path d="M335.47,231.26l-29.89,25.33a26.66,26.66,0,0,1-6.55.9l39.19-33.2A29.66,29.66,0,0,1,335.47,231.26Z" style="fill:#ebebeb"></path><path d="M214.27,259.61h11.14a4.58,4.58,0,0,1,4.58,4.58V279.9a0,0,0,0,1,0,0H209.7a0,0,0,0,1,0,0V264.19A4.57,4.57,0,0,1,214.27,259.61Z" style="fill:#A47979"></path><path d="M214.27,259.61h11.14a4.58,4.58,0,0,1,4.58,4.58v2.51a0,0,0,0,1,0,0H209.7a0,0,0,0,1,0,0v-2.52A4.57,4.57,0,0,1,214.27,259.61Z" style="fill:#fff;opacity:0.1"></path><rect x="222.75" y="250.84" width="9.75" height="29.07" style="fill:#A47979"></rect><rect x="222.75" y="260.4" width="9.75" height="19.5" style="fill:#fff;opacity:0.4"></rect><rect x="236.01" y="262.93" width="20.29" height="16.97" style="fill:#A47979"></rect><rect x="236.01" y="268.73" width="20.29" height="11.17" style="fill:#fff;opacity:0.2"></rect><rect x="291.55" y="244.01" width="11.7" height="35.89" style="fill:#A47979"></rect><rect x="291.55" y="256.33" width="11.7" height="23.57" style="opacity:0.1"></rect><path d="M314.46,250.84h11.11a7.12,7.12,0,0,1,7.12,7.12V279.9a0,0,0,0,1,0,0H307.33a0,0,0,0,1,0,0V258A7.12,7.12,0,0,1,314.46,250.84Z" style="fill:#A47979"></path><path d="M332.69,260.85H307.33V258a7.13,7.13,0,0,1,7.13-7.12h11.11a7.12,7.12,0,0,1,7.12,7.12Z" style="fill:#fff;opacity:0.5"></path><rect x="307.33" y="260.85" width="25.36" height="19.05" style="fill:#fff;opacity:0.30000000000000004"></rect><path d="M343.41,279.9h-9.36V260.78a4.68,4.68,0,0,1,4.68-4.68h0a4.68,4.68,0,0,1,4.68,4.68Z" style="fill:#A47979"></path><path d="M343.41,264.87h-9.36v-4.09a4.68,4.68,0,0,1,4.68-4.68h0a4.68,4.68,0,0,1,4.68,4.68Z" style="opacity:0.8"></path><rect x="334.05" y="264.87" width="9.36" height="15.03" style="opacity:0.5"></rect><rect x="249.48" y="272.38" width="14.4" height="7.52" style="fill:#A47979"></rect><rect x="249.48" y="272.38" width="14.4" height="7.52" style="opacity:0.4"></rect><rect x="258.42" y="271.38" width="14.4" height="2.87" transform="translate(392.75 -86.1) rotate(63.74)" style="fill:#A47979"></rect><rect x="258.42" y="271.38" width="14.4" height="2.87" transform="translate(392.75 -86.1) rotate(63.74)" style="opacity:0.2"></rect><rect x="277.01" y="272.82" width="20.29" height="7.07" style="fill:#A47979"></rect><rect x="277.01" y="272.82" width="20.29" height="7.07" style="fill:#fff;opacity:0.30000000000000004"></rect><path d="M294.51,268.46h11.14a4.57,4.57,0,0,1,4.57,4.57v2.51a0,0,0,0,1,0,0H289.94a0,0,0,0,1,0,0V273A4.58,4.58,0,0,1,294.51,268.46Z" transform="translate(165.43 -109.97) rotate(28.39)" style="fill:#A47979"></path><path d="M294.51,268.46h11.14a4.57,4.57,0,0,1,4.57,4.57v2.51a0,0,0,0,1,0,0H289.94a0,0,0,0,1,0,0V273A4.58,4.58,0,0,1,294.51,268.46Z" transform="translate(165.43 -109.97) rotate(28.39)" style="opacity:0.5"></path><polygon points="355.63 279.9 355.63 415.02 280.62 415.02 280.62 293.95 195.57 293.95 195.57 415.02 188.45 415.02 188.45 279.9 355.63 279.9" style="fill:#A47979"></polygon><rect x="280.62" y="293.95" width="50.72" height="121.07" style="fill:#fff;opacity:0.30000000000000004"></rect><rect x="188.45" y="279.9" width="167.17" height="14.04" style="fill:#A47979"></rect><rect x="188.45" y="293.95" width="7.12" height="121.07" style="fill:#fff;opacity:0.30000000000000004"></rect><rect x="282.38" y="300.77" width="44.28" height="30.63" style="fill:#A47979"></rect><ellipse cx="304.52" cy="308.31" rx="2.81" ry="2.93" style="fill:#fff;opacity:0.8"></ellipse><rect x="282.38" y="300.77" width="44.28" height="30.63" style="fill:#fff;opacity:0.5"></rect><rect x="282.38" y="333.93" width="44.28" height="30.63" style="fill:#A47979"></rect><ellipse cx="304.52" cy="341.47" rx="2.81" ry="2.93" style="fill:#fff;opacity:0.8"></ellipse><rect x="282.38" y="333.93" width="44.28" height="30.63" style="fill:#fff;opacity:0.5"></rect><rect x="282.38" y="367.1" width="44.28" height="30.63" style="fill:#A47979"></rect><ellipse cx="304.52" cy="374.63" rx="2.81" ry="2.93" style="fill:#fff;opacity:0.8"></ellipse><rect x="282.38" y="367.1" width="44.28" height="30.63" style="fill:#fff;opacity:0.5"></rect><rect x="188.45" y="279.9" width="142.89" height="14.04" style="fill:#fff;opacity:0.5"></rect><rect x="331.34" y="293.95" width="24.29" height="121.07" style="opacity:0.2"></rect><polygon points="229.99 415.02 229.99 293.87 195.57 293.95 195.57 415.02 229.99 415.02" style="fill:#A47979"></polygon><polygon points="229.99 415.02 229.99 293.87 195.57 293.95 195.57 415.02 229.99 415.02" style="opacity:0.1"></polygon><rect x="331.34" y="279.9" width="24.29" height="14.04" style="fill:#fff;opacity:0.2"></rect><rect x="284.97" y="397.72" width="41.68" height="17.29" style="opacity:0.30000000000000004"></rect><rect x="282.38" y="397.72" width="2.6" height="17.29" style="opacity:0.5"></rect></g><g id="freepik--Character--inject-61"><rect x="147.03" y="332.67" width="92.65" height="7.81" style="fill:#A47979"></rect><rect x="147.03" y="332.67" width="50.55" height="7.81" style="opacity:0.2"></rect><polygon points="142.71 415.11 149.9 415.11 156.17 340.48 148.36 340.48 142.71 415.11" style="fill:#A47979"></polygon><polygon points="142.71 415.11 149.9 415.11 156.17 340.48 148.36 340.48 142.71 415.11" style="opacity:0.30000000000000004"></polygon><polygon points="147.92 345.38 148.36 340.48 156.17 340.48 155.68 345.38 147.92 345.38" style="opacity:0.2"></polygon><polygon points="188.73 415.11 194.28 415.11 196.13 340.48 187.5 340.48 188.73 415.11" style="fill:#A47979"></polygon><polygon points="188.73 415.11 194.28 415.11 196.13 340.48 187.5 340.48 188.73 415.11" style="opacity:0.5"></polygon><polygon points="187.59 345.38 195.98 345.38 196.13 340.48 187.5 340.48 187.59 345.38" style="opacity:0.2"></polygon><polygon points="239.68 415.11 236.19 340.48 225.71 340.48 235.16 415.11 239.68 415.11" style="fill:#A47979"></polygon><polygon points="239.68 415.11 236.19 340.48 225.71 340.48 235.16 415.11 239.68 415.11" style="opacity:0.30000000000000004"></polygon><polygon points="226.45 345.38 236.47 345.38 236.19 340.48 225.71 340.48 226.45 345.38" style="opacity:0.2"></polygon><rect x="197.58" y="332.67" width="42.1" height="7.81" style="opacity:0.5"></rect><path d="M152.83,321.78H232.2a12.47,12.47,0,0,1,9.09,5l2.43,5.93H143.43S144.31,321.78,152.83,321.78Z" style="fill:#A47979"></path><path d="M152.83,321.78h42.5a12.47,12.47,0,0,1,9.08,5l2.43,5.93H143.43S144.31,321.78,152.83,321.78Z" style="opacity:0.4"></path><polygon points="224.69 292.61 250.78 391.59 196.28 387.71 208.53 294.47 224.69 292.61" style="fill:#A47979"></polygon><polygon points="224.69 292.61 250.78 391.59 196.28 387.71 208.53 294.47 224.69 292.61" style="opacity:0.2"></polygon><polygon points="261.01 379.52 254.43 381.11 251.1 372.03 248.08 363.77 255.57 360.58 258.45 370.6 261.01 379.52" style="fill:#e4897b"></polygon><path d="M252.84,380.66c-.16-.73,8.88-2.3,8.88-2.3s6.82,4.25,12.45,4.22,3.42,3.88-2.53,5.32l-14.72,3.54C252.69,392.46,254.47,388.22,252.84,380.66Z" style="fill:#2e353a"></path><path d="M265.88,379.61a16.19,16.19,0,0,1-2.89-.34l-.08,0-.06-.07a.09.09,0,0,1,0-.05h0a.18.18,0,0,1,0-.1c0-.11.27-2.36,1.35-3.15a1.41,1.41,0,0,1,1.16-.25c.45.1.71.3.77.61.08.48-.44,1.1-1.07,1.66a3.76,3.76,0,0,1,2.05-.26,1,1,0,0,1,.62.49.88.88,0,0,1,0,1A2.38,2.38,0,0,1,265.88,379.61Zm-2.11-.69c1.45.24,3.2.34,3.54-.1,0,0,.11-.16-.06-.49a.51.51,0,0,0-.33-.25C266.19,377.86,264.72,378.46,263.77,378.92Zm1.22-2.86a.92.92,0,0,0-.56.19,4,4,0,0,0-1.06,2.28c1.2-.82,2.3-1.82,2.23-2.22,0-.13-.25-.2-.39-.22Z" style="fill:#577afa"></path><polygon points="205.34 405.47 198.78 403.79 200.04 394.39 201.21 385.77 209.32 386.5 207.21 396.55 205.34 405.47" style="fill:#e4897b"></polygon><path d="M260.73,378.54,254,380s-29.7-71.66-34.7-71.87-55.91,23.19-68.67,10.21,5.69-44.24,5.69-44.24,30.69-4.38,33,2.55a48.61,48.61,0,0,1,1.3,6.22c.35,2.12.59,3.9.59,3.9h0c.95-.24,31.76-8.19,43.9,0C247.5,295.14,260.73,378.54,260.73,378.54Z" style="fill:#fa8e7b"></path><path d="M172.71,321.49s2.08.05,34.27-1.45c0,0-5.57,54-8.2,84.17h6.7s26.69-76.67,26.44-86.92-12-13.25-12-13.25S197,317.29,172.71,321.49Z" style="fill:#fa8e7b"></path><path d="M172.71,321.49s2.08.05,34.27-1.45c0,0-5.57,54-8.2,84.17h6.7s26.69-76.67,26.44-86.92-12-13.25-12-13.25S197,317.29,172.71,321.49Z" style="opacity:0.2;isolation:isolate"></path><path d="M155.92,263.26s-.26-22.13-6.25-36.89c0,0,13.85-10,45.76-11.58,0,0,.1,27.86-4.18,50.67C191.25,265.46,176.85,265.51,155.92,263.26Z" style="fill:#A47979"></path><path d="M157.48,261.85s-1.82-20.72-7.81-35.48c0,0,13.85-10,45.76-11.58,0,0,3,26.05-6.08,49.14C189.35,263.93,178.41,264.09,157.48,261.85Z" style="fill:#e4897b"></path><g style="opacity:0.7000000000000001;isolation:isolate"><path d="M192.7,263.4q.27-1,.51-2.07c-12.15,1.22-28.44.67-36.69.26.06.71.12,1.39.17,2,4.51.23,11.24.49,18.4.49C181,264.1,187.21,263.92,192.7,263.4Z" style="fill:#fff"></path></g><path d="M167.12,220.24c-1.05,3.45,7.16,7.87,11.92,8.12s5.64-6.83,3.3-8.69C178.92,217,167.92,217.61,167.12,220.24Z" style="fill:#A47979"></path><path d="M167.12,221.24c-1.05,3.45,7.16,7.87,11.92,8.12s5.64-6.83,3.3-8.69C178.92,218,167.92,218.61,167.12,221.24Z" style="fill:#e4897b"></path><path d="M182.8,219.62l-2.49-3.37a60.22,60.22,0,0,0-11.13,2.27l-.77,4.32Z" style="fill:#A47979"></path><path d="M179,224.67c-6.78.92-9.68-6.17-9.68-6.17,5.85-4,2.81-12.93,2.81-12.93l9.4,3.31a32.57,32.57,0,0,0-1,4c-.85,4.5,1.79,5.35,1.79,5.35A5.08,5.08,0,0,1,179,224.67Z" style="fill:#e4897b"></path><path d="M180.47,213.82c-.5,1.56,0,3.21-.22,4.34-4.81-.78-7.56-6.73-7.56-6.73Z" style="opacity:0.2;isolation:isolate"></path><path d="M169.18,263.93c-3.42-.11-9.34-4-13.32-8.61-.61-5.31-1.51-11.47-2.77-17.25C157.27,242.51,175.94,264.14,169.18,263.93Z" style="opacity:0.2;isolation:isolate"></path><path d="M203,312.11a41.5,41.5,0,0,0-2.32,8.7c-7.39,1.11-17.54,1.07-28.2.83Z" style="fill:#263238"></path><path d="M155.46,274.06c-9.2,17.85-14.12,34-5.73,45,10.87,8.61,33,2.19,57.63-7.64l-1.58-27.67a45.17,45.17,0,0,0-14.53,3.08l-.74-10Z" style="fill:#263238"></path><path d="M197,403.48c0-.75,9.18-.05,9.18-.05s5.56,5.8,11,7.15,2.36,4.6-3.76,4.53l-15.13-.18C194,414.88,196.74,411.21,197,403.48Z" style="fill:#2e353a"></path><path d="M211,405.83a11.36,11.36,0,0,1-3.82-1.21.24.24,0,0,1-.08-.06h0l0-.05h0a.3.3,0,0,1,0-.19c0-.09.83-2.21,2.08-2.72a1.42,1.42,0,0,1,1.19,0c.41.2.61.46.59.78,0,.48-.69.95-1.44,1.34a3.76,3.76,0,0,1,2.05.25,1,1,0,0,1,.48.63.87.87,0,0,1-.23,1A1.24,1.24,0,0,1,211,405.83Zm-3-1.35c1.34.59,3,1.11,3.45.76,0,0,.15-.12.06-.48a.48.48,0,0,0-.26-.32C210.65,404.05,209.07,404.26,208.05,404.48Zm1.65-2.5a.92.92,0,0,0-.36.07,4,4,0,0,0-1.59,1.95c1.36-.5,2.68-1.2,2.71-1.61,0-.13-.2-.25-.32-.31A1,1,0,0,0,209.7,402Z" style="fill:#577afa"></path><g style="opacity:0.1"><path d="M211,405.83a11.36,11.36,0,0,1-3.82-1.21.24.24,0,0,1-.08-.06h0l0-.05h0a.3.3,0,0,1,0-.19c0-.09.83-2.21,2.08-2.72a1.42,1.42,0,0,1,1.19,0c.41.2.61.46.59.78,0,.48-.69.95-1.44,1.34a3.76,3.76,0,0,1,2.05.25,1,1,0,0,1,.48.63.87.87,0,0,1-.23,1A1.24,1.24,0,0,1,211,405.83Zm-3-1.35c1.34.59,3,1.11,3.45.76,0,0,.15-.12.06-.48a.48.48,0,0,0-.26-.32C210.65,404.05,209.07,404.26,208.05,404.48Zm1.65-2.5a.92.92,0,0,0-.36.07,4,4,0,0,0-1.59,1.95c1.36-.5,2.68-1.2,2.71-1.61,0-.13-.2-.25-.32-.31A1,1,0,0,0,209.7,402Z" style="fill:#fff"></path></g><path d="M156.52,261.59c-9.2,17.86-15.18,46.51-6.79,57.44,10.87,8.61,33,2.19,57.63-7.64l-1.58-27.67a45.17,45.17,0,0,0-14.53,3.08V263.93Z" style="fill:#A47979"></path><path d="M191.25,286.8l-17.95,3.74s10.22-5.48,17.67-7.64C191.22,285.18,191.25,286.8,191.25,286.8Z" style="opacity:0.30000000000000004;isolation:isolate"></path><path d="M205.78,283.72s5.68-1.68,9.6,9.49,20.39,108.28,20.39,108.28c-19.77-1.21-35.28-4.6-39.49-13.78l4.36-66.9a185.81,185.81,0,0,1-28.2.83Z" style="fill:#A47979"></path><path d="M203,312.11a41.5,41.5,0,0,0-2.32,8.7c-7.39,1.11-17.54,1.07-28.2.83Z" style="opacity:0.30000000000000004"></path><polygon points="155.46 274.06 155.46 270.56 191.25 272.76 190.51 276.76 155.46 274.06" style="fill:#A47979"></polygon><polygon points="154.14 266.62 155.91 262.8 191.25 265.46 191.25 269.49 154.14 266.62" style="fill:#fff;opacity:0.1"></polygon><path d="M214.74,213,212.55,207s-2-1.22-2.26-2.27.21-7.45,1-7.93,5.63.56,6,1.87-.78,6.8-1.1,7.27l2.45,6Z" style="fill:#e4897b"></path><path d="M194.51,216.68l23.83,8.23L212.55,207l3.61-1.06s11.25,22.78,9.08,26.58-32.43-7.49-32.43-7.49Z" style="fill:#e4897b"></path><path d="M217.45,207.31l-6.72,1.85,7,15.06-22.32-9.43-4.8,5.26,1.65,8.87s30.85,8.4,33.69,4.42S217.45,207.31,217.45,207.31Z" style="fill:#A47979"></path><path d="M211.16,199l0-5.46h-.87a2.78,2.78,0,0,0,0,5.46Z" style="fill:#A47979"></path><path d="M213.9,196.23a2.74,2.74,0,1,1-2.74-2.73A2.74,2.74,0,0,1,213.9,196.23Z" style="fill:#A47979"></path><path d="M213.9,196.23a2.74,2.74,0,1,1-2.74-2.73A2.74,2.74,0,0,1,213.9,196.23Z" style="fill:#fff;opacity:0.7000000000000001"></path><path d="M210,196.68a1.11,1.11,0,0,0,.09.46c.09.12.37.12.37.12a1.8,1.8,0,0,0-.13-.35A.55.55,0,0,0,210,196.68Z" style="fill:#fff"></path><path d="M210.47,197.35a1.08,1.08,0,0,0,.09.46c.09.12.37.12.37.12a1.86,1.86,0,0,0-.13-.34A.58.58,0,0,0,210.47,197.35Z" style="fill:#fff"></path><path d="M209.49,196a1.08,1.08,0,0,0,.09.46c.09.13.37.13.37.13a1.8,1.8,0,0,0-.13-.35A.58.58,0,0,0,209.49,196Z" style="fill:#fff"></path><path d="M210,196a1.08,1.08,0,0,0,.09.46c.09.13.37.13.37.13a1.8,1.8,0,0,0-.13-.35A.58.58,0,0,0,210,196Z" style="fill:#fff"></path><path d="M210.56,196.77a1.11,1.11,0,0,0,.09.46c.09.12.37.12.37.12a1.8,1.8,0,0,0-.13-.35A.55.55,0,0,0,210.56,196.77Z" style="fill:#fff"></path><path d="M212.57,196.62a1,1,0,0,1-.08.42c-.08.11-.34.11-.34.11a1.31,1.31,0,0,1,.12-.32A.52.52,0,0,1,212.57,196.62Z" style="fill:#fff"></path><path d="M212.09,197.24a1,1,0,0,1-.08.42c-.08.11-.34.11-.34.11a1.31,1.31,0,0,1,.12-.32A.52.52,0,0,1,212.09,197.24Z" style="fill:#fff"></path><path d="M213,196a.91.91,0,0,1-.09.42c-.08.11-.34.11-.34.11a1.7,1.7,0,0,1,.13-.32A.49.49,0,0,1,213,196Z" style="fill:#fff"></path><path d="M212.52,196a.91.91,0,0,1-.09.42c-.08.11-.34.11-.34.11a1.7,1.7,0,0,1,.13-.32A.49.49,0,0,1,212.52,196Z" style="fill:#fff"></path><path d="M212,196.7a1,1,0,0,1-.08.42c-.09.12-.35.12-.35.12a1.45,1.45,0,0,1,.13-.32A.5.5,0,0,1,212,196.7Z" style="fill:#fff"></path><path d="M210.89,195.13a1,1,0,0,1,.37-.18c.14,0,.29.19.29.19a1.26,1.26,0,0,1-.32.1A.47.47,0,0,1,210.89,195.13Z" style="fill:#fff"></path><path d="M211.65,195.14A1,1,0,0,1,212,195c.14,0,.29.19.29.19a1.05,1.05,0,0,1-.32.09A.48.48,0,0,1,211.65,195.14Z" style="fill:#fff"></path><path d="M210.16,195.17a1.07,1.07,0,0,1,.38-.19c.13,0,.29.2.29.2a1.83,1.83,0,0,1-.32.09A.52.52,0,0,1,210.16,195.17Z" style="fill:#fff"></path><path d="M210.44,195.54a1.07,1.07,0,0,1,.38-.19c.14,0,.29.2.29.2a1.55,1.55,0,0,1-.32.09A.52.52,0,0,1,210.44,195.54Z" style="fill:#fff"></path><path d="M211.28,195.52a1.07,1.07,0,0,1,.38-.19c.13,0,.29.2.29.2a1.83,1.83,0,0,1-.32.09A.52.52,0,0,1,211.28,195.52Z" style="fill:#fff"></path><path d="M180.54,216.26a60,60,0,0,1,14.89-1.47c1.52,17.69-.61,33.54-4.12,49.56l-23.3-.42C174.72,245.09,186.24,222.9,180.54,216.26Z" style="fill:#A47979"></path><path d="M180.54,216.26a60,60,0,0,1,14.89-1.47c1.52,17.69-.67,34-4.18,50L168,263.93C167.92,141,186.21,222.38,180.54,216.26Z" style="opacity:0.1"></path><path d="M169.27,218.5c12.8,18,23.36,38.13,23.36,40.33s.58,4.24-1.32,5.52-33.07-.21-34.79-2.76-2.9-19.45-6.85-35.22C154,222.06,162.49,219.94,169.27,218.5Z" style="fill:#A47979"></path><path d="M150.37,228.09l2,15.88s19.36,20.61,21.64,19.77,26-13,26-13l-2-3.53-22.6,7.67Z" style="fill:#e4897b"></path><path d="M192.09,250l6-2.79s.79-2.4,1.82-2.92,7.87-1.6,8.55-.94.78,6-.49,6.77-7.32.83-7.89.62L193.15,254Z" style="fill:#e4897b"></path><path d="M194.22,247.74l-19,6.24s-23.94-29.35-25.79-27.62-1.69,7.08-1.3,11.07,22.15,28.29,25.67,26.68,22.88-7.4,22.88-7.4Z" style="fill:#A47979"></path><path d="M194.22,247.74l-19,6.24s-23.94-29.35-25.79-27.62-1.69,7.08-1.3,11.07,22.15,28.29,25.67,26.68,22.88-7.4,22.88-7.4Z" style="fill:#fff;opacity:0.2"></path><path d="M181.18,185.43c8.5.73,10.84,5.51,10.71,14.32-.16,11-3.26,18.57-13.67,15.32C164.07,210.66,167.08,184.22,181.18,185.43Z" style="fill:#e4897b"></path><path d="M186.44,198.8a18.29,18.29,0,0,0,2.17,3.74,2.36,2.36,0,0,1-2.32.77Z" style="fill:#de5753"></path><path d="M181.3,197.66c0,.7-.46,1.24-.92,1.22s-.81-.62-.77-1.32.46-1.25.93-1.22S181.35,197,181.3,197.66Z" style="fill:#2e353a"></path><path d="M180.34,196.37l1.56-.51S181.06,197.1,180.34,196.37Z" style="fill:#2e353a"></path><path d="M190,198.06c0,.7-.46,1.24-.92,1.21s-.81-.62-.77-1.32.46-1.24.93-1.21S190,197.36,190,198.06Z" style="fill:#2e353a"></path><path d="M189,196.76l1.56-.5S189.76,197.49,189,196.76Z" style="fill:#2e353a"></path><path d="M177.93,193.12a.37.37,0,0,1-.26-.1.36.36,0,0,1,0-.51,4.73,4.73,0,0,1,4.13-1.07.36.36,0,0,1-.16.7,4.1,4.1,0,0,0-3.45.87A.38.38,0,0,1,177.93,193.12Z" style="fill:#2e353a"></path><path d="M191.25,193.31a.34.34,0,0,1-.23-.08,3.63,3.63,0,0,0-3-.92.36.36,0,0,1-.19-.7,4.31,4.31,0,0,1,3.65,1.06.36.36,0,0,1,.05.51A.34.34,0,0,1,191.25,193.31Z" style="fill:#2e353a"></path><path d="M184.76,206.54a21,21,0,0,0-1.24,2.87l-.54-.1c-2.46-.46-3.44-1.49-3.79-2.48a3.12,3.12,0,0,1-.11-1.52,3.21,3.21,0,0,1,.23-.84,11.67,11.67,0,0,0,4.62,1.9C184.44,206.49,184.76,206.54,184.76,206.54Z" style="fill:#2e353a"></path><path d="M183.93,206.37l-.39.84c-2.31-.44-3.87-1.07-4.46-1.9a3.21,3.21,0,0,1,.23-.84A11.67,11.67,0,0,0,183.93,206.37Z" style="fill:#fff"></path><path d="M183,209.31c-2.46-.46-3.44-1.49-3.79-2.48a8,8,0,0,1,2.62,1A3,3,0,0,1,183,209.31Z" style="fill:#de5753"></path><path d="M170.67,199s4.57-6.64,4.43-12.08c0,0,17.43-5.42,16.79,11.73,0,0,3-15-11.62-16.62s-16.35,19.77-9.36,26.78C170.91,208.76,167.84,203.1,170.67,199Z" style="fill:#2e353a"></path><path d="M171.9,200.86a3.73,3.73,0,0,0-3.71-3.75c-2.66.06-4.38,5.36,2.06,7.22C171.17,204.6,171.78,203.72,171.9,200.86Z" style="fill:#e4897b"></path><path d="M191.3,194.7l-.7,4.57a2.43,2.43,0,0,1-1.44,1.82c-1.19.34-2.24-3.24-2.53-4.1a12.35,12.35,0,0,1-.34-2.63,8.56,8.56,0,0,1,.54-3,3.68,3.68,0,0,1,2.21-1.47l-4.61-3.21-5.24,2.58s3.56,1.29,4.12,2.1a5.75,5.75,0,0,1,.84,3l-.22,3.25s-.62,3.13-2.81,3.51-3.31-2.91-3.56-3.51a10.19,10.19,0,0,1,0-2.74l1.25-1.75h-2.87l-3.65,3.62-.68,9.77a6.18,6.18,0,0,0,1.52,4.57c1.8,1.78,8,4.49,8,4.49H183a6.6,6.6,0,0,0,3.93-1.47c1.69-1.46,3.69-5.62,3.69-5.62l1-6.19v-7.54Zm-7.71,17a7.24,7.24,0,0,1-2.28-.6s-2.78-1.9-3.06-4.25-.62-2.58.79-3,7.61,2,7.88,2.7.73.81.05,1.86S184.53,211.68,183.59,211.68Zm3.27-7.7a1.82,1.82,0,0,1-1.52-1.07c-.34-.51.95-4.9.95-4.9s2.75,4.39,2.75,5.07S187.64,204,186.86,204Z" style="fill:#263238"></path><path d="M191.3,194.7l-.7,4.57a2.43,2.43,0,0,1-1.44,1.82c-1.19.34-2.24-3.24-2.53-4.1a12.35,12.35,0,0,1-.34-2.63,8.56,8.56,0,0,1,.54-3,3.68,3.68,0,0,1,2.21-1.47l-4.61-3.21-5.24,2.58s3.56,1.29,4.12,2.1a5.75,5.75,0,0,1,.84,3l-.22,3.25s-.62,3.13-2.81,3.51-3.31-2.91-3.56-3.51a10.19,10.19,0,0,1,0-2.74l1.25-1.75h-2.87l-3.65,3.62-.68,9.77a6.18,6.18,0,0,0,1.52,4.57c1.8,1.78,8,4.49,8,4.49H183a6.6,6.6,0,0,0,3.93-1.47c1.69-1.46,3.69-5.62,3.69-5.62l1-6.19v-7.54Zm-7.71,17a7.24,7.24,0,0,1-2.28-.6s-2.78-1.9-3.06-4.25-.62-2.58.79-3,7.61,2,7.88,2.7.73.81.05,1.86S184.53,211.68,183.59,211.68Zm3.27-7.7a1.82,1.82,0,0,1-1.52-1.07c-.34-.51.95-4.9.95-4.9s2.75,4.39,2.75,5.07S187.64,204,186.86,204Z" style="fill:#fff;opacity:0.2"></path><path d="M184.58,187.24s-9,12.5-17.76,11.56,6.32-17.46,6.32-17.46,14.83-4.18,21.26,4-3.24,13.21-3.24,13.21S191.08,190,184.58,187.24Z" style="fill:#2e353a"></path><path d="M180.55,200.41l-.06-5.47h-.87a2.79,2.79,0,0,0,0,5.47Z" style="fill:#A47979"></path><path d="M183.28,197.68a2.74,2.74,0,1,1-2.73-2.74A2.73,2.73,0,0,1,183.28,197.68Z" style="fill:#A47979"></path><path d="M183.28,197.68a2.74,2.74,0,1,1-2.73-2.74A2.73,2.73,0,0,1,183.28,197.68Z" style="fill:#fff;opacity:0.7000000000000001"></path><path d="M179.33,198.12a1.08,1.08,0,0,0,.09.46c.09.13.37.13.37.13a1.8,1.8,0,0,0-.13-.35A.58.58,0,0,0,179.33,198.12Z" style="fill:#fff"></path><path d="M179.86,198.8a1.11,1.11,0,0,0,.09.46c.09.12.37.12.37.12a1.53,1.53,0,0,0-.14-.35A.51.51,0,0,0,179.86,198.8Z" style="fill:#fff"></path><path d="M178.87,197.45a1.11,1.11,0,0,0,.09.46c.09.12.37.12.37.12a1.8,1.8,0,0,0-.13-.35A.55.55,0,0,0,178.87,197.45Z" style="fill:#fff"></path><path d="M179.39,197.45a1.11,1.11,0,0,0,.09.46c.09.12.38.12.38.12a1.53,1.53,0,0,0-.14-.35A.52.52,0,0,0,179.39,197.45Z" style="fill:#fff"></path><path d="M180,198.21a1.08,1.08,0,0,0,.09.46c.09.13.37.13.37.13a1.53,1.53,0,0,0-.14-.35A.55.55,0,0,0,180,198.21Z" style="fill:#fff"></path><path d="M182,198.06a1.08,1.08,0,0,1-.08.43c-.08.11-.34.11-.34.11a1.45,1.45,0,0,1,.13-.32A.47.47,0,0,1,182,198.06Z" style="fill:#fff"></path><path d="M181.47,198.68a1.08,1.08,0,0,1-.08.43c-.08.11-.34.11-.34.11a1.77,1.77,0,0,1,.12-.32A.5.5,0,0,1,181.47,198.68Z" style="fill:#fff"></path><path d="M182.38,197.44a1.08,1.08,0,0,1-.08.43c-.09.11-.35.11-.35.11a1.45,1.45,0,0,1,.13-.32A.5.5,0,0,1,182.38,197.44Z" style="fill:#fff"></path><path d="M181.9,197.44a1.08,1.08,0,0,1-.08.43c-.09.11-.35.11-.35.11a1.45,1.45,0,0,1,.13-.32A.5.5,0,0,1,181.9,197.44Z" style="fill:#fff"></path><path d="M181.39,198.14a1.08,1.08,0,0,1-.08.43c-.08.11-.34.11-.34.11a1.31,1.31,0,0,1,.12-.32A.56.56,0,0,1,181.39,198.14Z" style="fill:#fff"></path><path d="M180.27,196.58a1.07,1.07,0,0,1,.38-.19c.13,0,.28.2.28.2a1.55,1.55,0,0,1-.32.09A.5.5,0,0,1,180.27,196.58Z" style="fill:#fff"></path><path d="M181,196.59a.93.93,0,0,1,.38-.19c.13,0,.28.2.28.2a1.55,1.55,0,0,1-.32.09A.5.5,0,0,1,181,196.59Z" style="fill:#fff"></path><path d="M179.54,196.61a1,1,0,0,1,.38-.18c.14,0,.29.2.29.2a1.55,1.55,0,0,1-.32.09A.5.5,0,0,1,179.54,196.61Z" style="fill:#fff"></path><path d="M179.83,197a1,1,0,0,1,.37-.18c.14,0,.29.2.29.2a1.55,1.55,0,0,1-.32.09A.47.47,0,0,1,179.83,197Z" style="fill:#fff"></path><path d="M180.66,197a1,1,0,0,1,.38-.18c.14,0,.29.2.29.2a1.55,1.55,0,0,1-.32.09A.5.5,0,0,1,180.66,197Z" style="fill:#fff"></path><path d="M170.49,170.79s-4.61-2.7-8.21-1.24-7.39,10.24-7.09,14.74.67,4.73,0,9-4.84,8.53-4.84,8.53l11.48-5.5Z" style="fill:#A47979"></path><path d="M170.49,170.79s-4.61-2.7-8.21-1.24-7.39,10.24-7.09,14.74.67,4.73,0,9-4.84,8.53-4.84,8.53l11.48-5.5Z" style="fill:#fff;opacity:0.2"></path><path d="M169,180.28s-4.61-2-5.61-3.57,1.48-4,2.53-5.09a9.58,9.58,0,0,1,4.56-3.29c3.21-1.36,6.63-1.37,7.86-1a6.88,6.88,0,0,1,4.84,3.57,6.56,6.56,0,0,1,.76,5.13Z" style="fill:#A47979"></path><path d="M169,180.28s-4.61-2-5.61-3.57,1.48-4,2.53-5.09a9.58,9.58,0,0,1,4.56-3.29c3.21-1.36,6.63-1.37,7.86-1a6.88,6.88,0,0,1,4.84,3.57,6.56,6.56,0,0,1,.76,5.13Z" style="fill:#fff;opacity:0.4"></path><path d="M184.76,186.54s-10.43,3.84-12.85,6.58S169,206.07,169,206.07l1.92,2.69s-9.92-.45-11.48-2.92-2.33-13.53-1.32-18.74,7.84-10.48,11.7-12.26,17.7-2.24,20-1.69,4,3,5,5.07-.56,7.17-.56,7.17Z" style="fill:#A47979"></path><path d="M184.76,186.54s-10.43,3.84-12.85,6.58S169,206.07,169,206.07l1.92,2.69s-9.92-.45-11.48-2.92-2.33-13.53-1.32-18.74,7.84-10.48,11.7-12.26,17.7-2.24,20-1.69,4,3,5,5.07-.56,7.17-.56,7.17Z" style="fill:#fff;opacity:0.30000000000000004"></path><path d="M184.76,186.54s5.23,3.56,6.54,5.69.59,6.37.59,6.37v4.77s5.26-4,6.84-5.36,1.65-7.22.6-10.19-5.1-2.43-5.1-2.43Z" style="fill:#A47979"></path><path d="M184.76,186.54s5.23,3.56,6.54,5.69.59,6.37.59,6.37v4.77s5.26-4,6.84-5.36,1.65-7.22.6-10.19-5.1-2.43-5.1-2.43Z" style="fill:#fff;opacity:0.2"></path></g><g id="freepik--trash-bin--inject-61"><path d="M386,390.32a3,3,0,0,0-2.39-4.27,6.38,6.38,0,0,0-2-7,1.5,1.5,0,0,0-.88-.39,1.73,1.73,0,0,0-.94.41l-5.57,4a3.31,3.31,0,0,0-1.11,1.09c-1.14,2.21,3,5,1.28,6.86-.49.52-1.27.63-1.87,1-1.33.83-1.49,2.65-2.11,4.09s-2.77,2.55-3.6,1.22c.61-1.38-1.23-2.57-2.73-2.74s-3.06-.26-3.88-1.66c-2.13,1.85-6.88-3.33-6.77-5.41-1.75.13-2.94,1.76-3.32,3.4a24.38,24.38,0,0,0-.18,5.2c-.05,3.38-1.14,6.7-1.09,10.08.05,2.63,1.07,5.55,3.48,6.61a9,9,0,0,0,3.73.5l27.43-.18a4.06,4.06,0,0,0,1.93-.32c1.24-.64,1.5-2.27,1.61-3.66q.75-8.94,1.48-17.88Z" style="fill:#A47979"></path><path d="M386,390.32a3,3,0,0,0-2.39-4.27,6.38,6.38,0,0,0-2-7,1.5,1.5,0,0,0-.88-.39,1.73,1.73,0,0,0-.94.41l-5.57,4a3.31,3.31,0,0,0-1.11,1.09c-1.14,2.21,3,5,1.28,6.86-.49.52-1.27.63-1.87,1-1.33.83-1.49,2.65-2.11,4.09s-2.77,2.55-3.6,1.22c.61-1.38-1.23-2.57-2.73-2.74s-3.06-.26-3.88-1.66c-2.13,1.85-6.88-3.33-6.77-5.41-1.75.13-2.94,1.76-3.32,3.4a24.38,24.38,0,0,0-.18,5.2c-.05,3.38-1.14,6.7-1.09,10.08.05,2.63,1.07,5.55,3.48,6.61a9,9,0,0,0,3.73.5l27.43-.18a4.06,4.06,0,0,0,1.93-.32c1.24-.64,1.5-2.27,1.61-3.66q.75-8.94,1.48-17.88Z" style="fill:#fff;opacity:0.30000000000000004;isolation:isolate"></path><path d="M387.58,361.33H345l.35,4.3.25,3.07.65,8,.37,4.59.49,6.11.21,2.62.07.78.25,3.08.34,4.22.21,2.62.22,2.66.25,3.08.19,2.33.21,2.62.09,1.14h39.06l.09-1.14.21-2.61.19-2.35.25-3.08.22-2.65.21-2.62.34-4.23.25-3.07.06-.78.21-2.62.5-6.11.37-4.58.64-8,.25-3.07.35-4.3Zm2.56,2.82h0l-.82-.82h.89Zm-.21,2.61-.08,1L386,371.61l-4.37-4.37,3.91-3.91h.92Zm-1.1,13.62L386,383.17l-4.37-4.37,4.37-4.36,3,3Zm-40.5-2.92h0l3-3,4.37,4.36-4.37,4.37-2.78-2.79Zm36.3-4.44-4.37,4.37L375.89,373l4.37-4.37Zm-6.87-9.69h5l-2.5,2.5Zm1.08,15.47-4.36,4.37-4.37-4.37,4.37-4.36Zm-14.51,5.78,4.37-4.36,4.36,4.36L368.7,389Zm2.95,5.78-4.37,4.37-4.36-4.36,4.37-4.37Zm7.2-4.36,4.36,4.37-4.36,4.36-4.37-4.37Zm-5.78-8.61L364.33,373l4.37-4.37,4.36,4.37Zm-1.42,1.41-4.36,4.37-4.37-4.37,4.37-4.36Zm-10.15-1.41L352.77,373l4.36-4.37L361.5,373Zm0,2.83,4.37,4.36L357.13,389l-4.36-4.37Zm4.37,15.93-4.37,4.36-4.36-4.36,4.36-4.37Zm1.41,1.41,4.37,4.37-4.36,4.37-4.37-4.37Zm1.42-1.41,4.37-4.37,4.36,4.37-4.36,4.36Zm10.15,1.41,4.36,4.37-4.36,4.37-4.37-4.37Zm5.78,5.78,4.37,4.37-2.83,2.83h-3.08l-2.83-2.83Zm-4.37-7.19,4.37-4.37,4.37,4.37-4.37,4.36Zm0-11.57,4.37-4.36,4.37,4.36L380.26,389Zm2.95-17.34-4.36,4.37-4.37-4.37,3.91-3.91h.92Zm-10.14-1.41-2.5-2.5h5Zm-1.42,1.41-4.36,4.37-4.37-4.37,3.91-3.91h.92Zm-7.65-3.91-2.5,2.5-2.49-2.5Zm-7.82,0,3.91,3.91-4.37,4.37-3.8-3.81-.08-1,3.42-3.43Zm-3.74,0-.81.81h0l-.07-.81Zm-.27,7.55,2.14,2.14-1.82,1.82ZM349,385.53l-.17-2.07h0l1.12,1.12-.95.95Zm.21,2.63,2.15-2.16,4.37,4.37-4.37,4.36L349.59,393Zm.65,8.08v-.19l.1.1-.09.09Zm.76,9.31-.55-6.7,1.29-1.29,4.37,4.37-4.37,4.36-.74-.74Zm.4,5-.08-1,.42-.42,1.42,1.42Zm1.76-2.83,4.36-4.37,4.37,4.37-2.83,2.83h-3.08Zm8.73,2.83,1.42-1.42,1.42,1.42Zm5.66,0-2.83-2.83,4.37-4.37,4.36,4.37-2.82,2.83Zm5.9,0,1.42-1.42,1.42,1.42Zm13.32,0h-1.76l1.42-1.42.42.42Zm.41-5-.75.74-4.37-4.36,4.37-4.37,1.29,1.29Zm.77-9.51,0,.2-.09-.09.11-.11Zm.25-3.07L386,394.73l-4.37-4.36L386,386l2.16,2.16Zm.6-7.43-1-1,1.13-1.12Zm1.19-14.67-.32,4L387.45,373l2.15-2.15Z" style="fill:#A47979"></path><g style="opacity:0.6000000000000001;isolation:isolate"><path d="M387.58,361.33H345l.35,4.3.25,3.07.65,8,.37,4.59.49,6.11.21,2.62.07.78.25,3.08.34,4.22.21,2.62.22,2.66.25,3.08.19,2.33.21,2.62.09,1.14h39.06l.09-1.14.21-2.61.19-2.35.25-3.08.22-2.65.21-2.62.34-4.23.25-3.07.06-.78.21-2.62.5-6.11.37-4.58.64-8,.25-3.07.35-4.3Zm2.56,2.82h0l-.82-.82h.89Zm-.21,2.61-.08,1L386,371.61l-4.37-4.37,3.91-3.91h.92Zm-1.1,13.62L386,383.17l-4.37-4.37,4.37-4.36,3,3Zm-40.5-2.92h0l3-3,4.37,4.36-4.37,4.37-2.78-2.79Zm36.3-4.44-4.37,4.37L375.89,373l4.37-4.37Zm-6.87-9.69h5l-2.5,2.5Zm1.08,15.47-4.36,4.37-4.37-4.37,4.37-4.36Zm-14.51,5.78,4.37-4.36,4.36,4.36L368.7,389Zm2.95,5.78-4.37,4.37-4.36-4.36,4.37-4.37Zm7.2-4.36,4.36,4.37-4.36,4.36-4.37-4.37Zm-5.78-8.61L364.33,373l4.37-4.37,4.36,4.37Zm-1.42,1.41-4.36,4.37-4.37-4.37,4.37-4.36Zm-10.15-1.41L352.77,373l4.36-4.37L361.5,373Zm0,2.83,4.37,4.36L357.13,389l-4.36-4.37Zm4.37,15.93-4.37,4.36-4.36-4.36,4.36-4.37Zm1.41,1.41,4.37,4.37-4.36,4.37-4.37-4.37Zm1.42-1.41,4.37-4.37,4.36,4.37-4.36,4.36Zm10.15,1.41,4.36,4.37-4.36,4.37-4.37-4.37Zm5.78,5.78,4.37,4.37-2.83,2.83h-3.08l-2.83-2.83Zm-4.37-7.19,4.37-4.37,4.37,4.37-4.37,4.36Zm0-11.57,4.37-4.36,4.37,4.36L380.26,389Zm2.95-17.34-4.36,4.37-4.37-4.37,3.91-3.91h.92Zm-10.14-1.41-2.5-2.5h5Zm-1.42,1.41-4.36,4.37-4.37-4.37,3.91-3.91h.92Zm-7.65-3.91-2.5,2.5-2.49-2.5Zm-7.82,0,3.91,3.91-4.37,4.37-3.8-3.81-.08-1,3.42-3.43Zm-3.74,0-.81.81h0l-.07-.81Zm-.27,7.55,2.14,2.14-1.82,1.82ZM349,385.53l-.17-2.07h0l1.12,1.12-.95.95Zm.21,2.63,2.15-2.16,4.37,4.37-4.37,4.36L349.59,393Zm.65,8.08v-.19l.1.1-.09.09Zm.76,9.31-.55-6.7,1.29-1.29,4.37,4.37-4.37,4.36-.74-.74Zm.4,5-.08-1,.42-.42,1.42,1.42Zm1.76-2.83,4.36-4.37,4.37,4.37-2.83,2.83h-3.08Zm8.73,2.83,1.42-1.42,1.42,1.42Zm5.66,0-2.83-2.83,4.37-4.37,4.36,4.37-2.82,2.83Zm5.9,0,1.42-1.42,1.42,1.42Zm13.32,0h-1.76l1.42-1.42.42.42Zm.41-5-.75.74-4.37-4.36,4.37-4.37,1.29,1.29Zm.77-9.51,0,.2-.09-.09.11-.11Zm.25-3.07L386,394.73l-4.37-4.36L386,386l2.16,2.16Zm.6-7.43-1-1,1.13-1.12Zm1.19-14.67-.32,4L387.45,373l2.15-2.15Z" style="fill:#fff"></path></g><rect x="342.29" y="359.54" width="52.8" height="5.57" rx="1.64" transform="translate(737.39 724.66) rotate(180)" style="fill:#A47979"></rect><rect x="346.1" y="409.54" width="45.19" height="5.57" rx="1.64" style="fill:#A47979"></rect></g></svg>